<?xml version="1.0" encoding="utf-8"?>
<!-- Generator: Adobe Illustrator 19.2.0, SVG Export Plug-In . SVG Version: 6.00 Build 0)  -->
<svg version="1.1" id="Layer_1" xmlns="http://www.w3.org/2000/svg" xmlns:xlink="http://www.w3.org/1999/xlink" x="0px" y="0px"
	 viewBox="0 0 236.8 80" style="enable-background:new 0 0 236.8 80;" xml:space="preserve">
<style type="text/css">
	.st0{fill:#010101;}
	.st1{font-family:'Futura-Medium';}
	.st2{font-size:71.3197px;}
	.st3{letter-spacing:0.9;}
	.st4{fill:none;}
	.st5{fill:#BE1E2D;}
</style>
<text transform="matrix(1.1251 0 0 1 39.8687 67.9365)" class="st0 st1 st2 st3">MSV</text>
<g>
	<path class="st4" d="M31.8,39.9c-5.1-1.3-9.7-0.2-13.7,3.4c-0.3,0.2-0.5,0.5-0.9,0.6c-0.4,0.2-0.4,0.4-0.3,0.8
		c0.4,1.3,0.9,2.6,1.3,3.8c0,0.1,0.1,0.3,0.2,0.4c0.6-0.4,1.1-0.7,1.7-1.1c3.6-2.1,7.4-2.4,11.5-2.1c3.5,0.3,7,1.2,10.4,2
		c1,0.2,2,0.4,3,0.6l1-4.5c-2.1-0.3-4.2-0.8-6.3-1.5C37.1,41.5,34.5,40.6,31.8,39.9z"/>
	<path class="st4" d="M43.7,64.7c0.5,0.7,1,0.7,1.6,0.6c2.5-0.2,5-0.7,7.4-1.6c3.4-1.4,6.7-3.1,9.3-5.8c1.4-1.5,2.7-3,4-4.6
		c0.6-0.8,1.1-1.8,1.6-2.7c0,0-0.1-0.1-0.1-0.1c-1.7,0.9-3.4,1.6-5.3,1.9c-0.1,0-0.2,0.1-0.3,0.2c-0.5,0.3-0.9,0.8-1.4,1
		c-2.6,1-5,0.5-7.2-1.1c-0.2-0.1-0.5-0.3-0.7-0.3C50.7,52,49,52,47.4,51.7c-1-0.2-2-0.4-3-0.6l-2.6,11.6
		C42.5,63.4,43.1,64,43.7,64.7z"/>
	<path class="st4" d="M29.7,48.5c-3.4,0-6.7,0.5-9.4,2.8c-0.4,0.3-0.5,0.5-0.2,1c1.1,1.5,2.2,3,3.4,4.4c0.1,0.1,0.3,0.1,0.5,0.1
		c0.5-0.1,1.1-0.2,1.6-0.2c1.1,0.1,2.3,0.2,3.4,0.4c4.4,0.7,8.3,2.3,11.8,5c0.3,0.3,0.7,0.5,1,0.8l2.6-11.6
		c-1.4-0.3-2.9-0.6-4.3-0.9C36.7,49.4,33.3,48.5,29.7,48.5z"/>
	<path class="st4" d="M49.6,48.8c2.4-0.1,4.9-0.2,7.3-0.3c1.3,0,2.7,0,3.9,0.7c0.6,0.3,1.2,0.3,1.8,0.2c0.3-0.1,0.5-0.1,0.8-0.2
		c1.6-0.5,3.1-1.2,4.3-2.4c0.5-0.5,1.1-0.9,1.6-1.4c0.2-0.2,0.4-0.3,0.4-0.5c0.3-1.5,0.6-3,0.9-4.6c0.1-0.8,0.1-1.6,0.1-2.5
		c-0.3,0.2-0.5,0.3-0.7,0.5c-1.8,1-3.6,2.2-5.5,3.1c-6.1,2.6-12.2,3.6-18.4,2.7l-1,4.5C46.5,48.7,48,48.8,49.6,48.8z"/>
	<path class="st4" d="M55.6,12.4c-0.7-0.4-1.5-0.7-2.2-1L53,13.1C54.1,13,55,12.8,55.6,12.4z"/>
	<path class="st4" d="M56.5,18.8c1.6-0.7,2.9-1.8,4-3.2c-0.7-0.6-1.2-1.1-2.4-0.8c-2,0.6-3.9,0.9-5.8,1l-1,4.3
		C53.2,20,54.9,19.5,56.5,18.8z"/>
	<path class="st4" d="M58.8,34.4c3.5-1.2,6.9-2.3,10.4-3.5c0.3-0.1,0.5-0.2,0.8-0.3c-0.4-1.2-0.8-2.4-1.2-3.7
		c-0.7,0.5-1.2,0.9-1.8,1.3c-0.6,0.4-1.1,0.9-1.7,1.3c-5.3,3.2-11,4.7-17,4.5l-0.5,2.3C51.5,36.2,55.2,35.7,58.8,34.4z"/>
	<path class="st4" d="M60.8,28.6c2.3-1.1,4.4-2.4,6.3-4c0.3-0.2,0.4-0.4,0.2-0.7c-0.4-0.7-0.7-1.4-1.2-2c-1-1.4-2.2-2.8-3.3-4.2
		c-0.4,0.4-0.6,0.7-0.9,0.9c-2.3,2.3-5,3.7-8.1,4.5c-1,0.2-2.1,0.4-3.1,0.4l-1.7,7.7C52.9,31.3,56.9,30.4,60.8,28.6z"/>
	<path class="st4" d="M46.4,33.9c-2.1-0.2-4.1-0.7-6.1-1.4c-1.9-0.7-3.8-1.5-5.7-2.3c-3.2-1.2-6.5-1.8-10-0.9
		c-1.3,0.3-2.6,0.8-3.7,1.6c0.2-0.1,0.4-0.1,0.6-0.2c2.5-0.7,5-0.7,7.6-0.1c2.6,0.7,5,1.8,7.3,3c3.4,1.8,7.1,2.7,11,2.7
		c0.1,0,0.2,0,0.3,0l0.5-2.3C47.7,34,47,33.9,46.4,33.9z"/>
	<path class="st4" d="M40.5,9.6c2.1,2.2,8.5,3.7,12.5,3.5l0.4-1.7C49.3,9.7,45,9.1,40.5,9.6z"/>
	<path class="st4" d="M36,21.6c-3.1-0.7-6.2-1.1-9.4-1c-1.6,0-3.2,0.2-4.8,0.6c-0.6,0.2-0.9,0.4-1.2,0.9c-1.5,2.2-2.6,4.7-3.3,7.2
		c0,0.1,0,0.2,0,0.4c0.3-0.2,0.4-0.3,0.6-0.5c1.5-1.2,3.2-2,5-2.6c3-1,6-1.1,9-0.2c2.3,0.7,4.5,1.6,6.8,2.5
		c3.5,1.4,6.9,2.1,10.4,2.2l1.7-7.7c-0.3,0-0.7,0-1,0C45,23.5,40.5,22.6,36,21.6z"/>
	<path class="st4" d="M38.6,12.1c-0.7-0.4-1.4-0.8-1.4-1.8c-5.2,1.2-9.6,3.7-13.2,7.5c0.1,0,0.1,0.1,0.1,0.1c0.4,0,0.8,0,1.2-0.1
		c3.6-0.2,7.1,0.4,10.7,1c3.7,0.7,7.5,1.5,11.3,1.6c1.4,0,2.8,0,4.1-0.2l1-4.3C47.6,16.1,43,14.8,38.6,12.1z"/>
	<path class="st5" d="M40.8,62c-3.5-2.7-7.4-4.4-11.8-5c-1.1-0.2-2.3-0.3-3.4-0.4c-0.5,0-1,0.1-1.6,0.2c-0.2,0-0.4,0-0.5-0.1
		c-1.1-1.5-2.2-3-3.4-4.4c-0.3-0.4-0.2-0.6,0.2-1c2.7-2.3,6-2.8,9.4-2.8c3.6,0,7,0.9,10.4,1.7c1.4,0.3,2.8,0.6,4.3,0.9l0.6-2.8
		c-1-0.2-2-0.4-3-0.6c-3.5-0.8-6.9-1.7-10.4-2c-4-0.4-7.9,0-11.5,2.1c-0.6,0.3-1.1,0.7-1.7,1.1c-0.1-0.1-0.2-0.2-0.2-0.4
		c-0.5-1.3-0.9-2.6-1.3-3.8c-0.1-0.3-0.1-0.6,0.3-0.8c0.3-0.2,0.6-0.4,0.9-0.6c4-3.6,8.6-4.6,13.7-3.4c2.7,0.7,5.4,1.6,8,2.5
		c2.1,0.7,4.2,1.2,6.3,1.5l1.7-7.6c-0.1,0-0.2,0-0.3,0c-3.9,0-7.6-0.9-11-2.7c-2.4-1.2-4.8-2.3-7.3-3c-2.5-0.6-5.1-0.6-7.6,0.1
		c-0.2,0.1-0.4,0.1-0.6,0.2c1.1-0.8,2.4-1.3,3.7-1.6c3.4-0.8,6.7-0.3,10,0.9c1.9,0.7,3.8,1.5,5.7,2.3c2,0.8,4,1.2,6.1,1.4
		c0.6,0.1,1.3,0.1,1.9,0.1l0.6-2.9c-3.4-0.1-6.9-0.8-10.4-2.2c-2.2-0.9-4.5-1.8-6.8-2.5c-3-0.9-6-0.9-9,0.2c-1.8,0.6-3.5,1.5-5,2.6
		c-0.2,0.1-0.4,0.3-0.6,0.5c0-0.2,0-0.3,0-0.4c0.8-2.6,1.8-5,3.3-7.2c0.3-0.5,0.7-0.7,1.2-0.9c1.6-0.5,3.2-0.6,4.8-0.6
		c3.2,0,6.3,0.4,9.4,1c4.5,1,9.1,1.8,13.7,1.8c0.3,0,0.7,0,1,0l0.7-3.2c-1.4,0.2-2.7,0.2-4.1,0.2c-3.8-0.1-7.5-1-11.3-1.6
		c-3.5-0.6-7.1-1.2-10.7-1c-0.4,0-0.8,0-1.2,0.1c0,0,0,0-0.1-0.1c3.6-3.8,8-6.3,13.2-7.5c0,1,0.7,1.4,1.4,1.8
		c4.4,2.8,9,4.1,13.8,3.8l0.6-2.8c-4,0.2-10.4-1.3-12.5-3.5c4.5-0.5,8.8,0.1,12.9,1.8l0.5-2.1c-6.9-2.8-14-2.6-21.3,0.1
		c-3,1.2-5.8,2.8-8.2,5c-2,1.8-3.8,3.8-5.3,6c-2.6,4-4.3,8.4-4.9,13.2c0,0.2-0.1,0.3-0.1,0.5c-0.1,1.1-0.1,2.2-0.2,3.3
		c0.1,0.9,0.1,1.9,0.2,2.8c0.3,3.3,1.2,6.4,2.5,9.4c1,2.2,2.3,4.2,3.7,6.1c1.8,2.4,4,4.5,6.4,6.1c4.6,3.1,9.3,4.8,14.1,5.3l1-4.6
		C41.5,62.5,41.1,62.2,40.8,62z"/>
</g>
</svg>
